<svg width="267" height="35" viewBox="0 0 267 35" fill="none" xmlns="http://www.w3.org/2000/svg">
<path fill-rule="evenodd" clip-rule="evenodd" d="M105.292 33.6222C107.46 34.5471 109.797 35.0162 112.157 34.9996C114.53 35.0154 116.881 34.5466 119.063 33.6222C123.302 31.8567 126.674 28.5136 128.454 24.3106C129.372 22.1547 129.836 19.8358 129.819 17.496C129.837 15.1536 129.364 12.833 128.43 10.6815C127.536 8.61325 126.257 6.73042 124.66 5.13147C123.051 3.53385 121.149 2.25698 119.055 1.3698C116.873 0.45256 114.526 -0.0133748 112.157 0.000412144C109.798 -0.0158664 107.461 0.450234 105.292 1.3698C101.08 3.15347 97.7349 6.49339 95.9653 10.6815C95.0476 12.8372 94.5833 15.156 94.6003 17.496C94.5776 19.8365 95.0423 22.1563 95.9653 24.3106C97.7305 28.5014 101.077 31.8429 105.292 33.6222ZM116.512 27.6533C115.136 28.2358 113.653 28.5294 112.157 28.5152L112.173 28.5073C110.728 28.5172 109.295 28.237 107.962 27.6832C106.628 27.1294 105.421 26.3136 104.415 25.2851C102.913 23.6961 101.9 21.7146 101.495 19.5742C101.091 17.4336 101.312 15.223 102.132 13.2026C103.194 10.5713 105.257 8.45943 107.875 7.32243C109.231 6.72793 110.699 6.42594 112.181 6.43641C113.672 6.42677 115.147 6.72859 116.512 7.32243C117.817 7.88437 119 8.69132 119.997 9.69876C120.98 10.7137 121.763 11.9022 122.304 13.2026C122.861 14.5659 123.137 16.0255 123.117 17.496C123.124 18.9523 122.849 20.3964 122.304 21.749C121.234 24.3974 119.152 26.5196 116.512 27.6533Z" fill="white"/>
<path fill-rule="evenodd" clip-rule="evenodd" d="M63.915 0.467729H77.8482C79.6539 0.436168 81.4499 0.736653 83.1453 1.35374C84.6121 1.88761 85.955 2.70951 87.0937 3.77027C88.171 4.80827 89.0203 6.05624 89.5878 7.43527C90.1791 8.87193 90.4773 10.4106 90.4653 11.9622C90.4824 14.0434 89.9353 16.091 88.881 17.8907C87.8438 19.677 86.2979 21.12 84.4371 22.0391L91.2128 34.5083H83.779L78.2707 23.7709H70.5444V34.5405H63.915V0.467729ZM70.5444 17.8102V6.54111H77.3038C79.4406 6.54925 81.0411 7.0406 82.1053 8.0394C82.6508 8.55666 83.078 9.18371 83.3583 9.87854C83.6386 10.5732 83.7654 11.3195 83.7303 12.067C83.7331 12.8052 83.6066 13.5384 83.3565 14.2337C83.1078 14.9305 82.7055 15.5636 82.1784 16.0863C81.6046 16.6386 80.9213 17.0665 80.1718 17.3429C79.262 17.675 78.2973 17.8334 77.3282 17.8102H70.5444Z" fill="white"/>
<path fill-rule="evenodd" clip-rule="evenodd" d="M19.4984 0.468436H12.9989L0 34.5412H6.81632L9.07488 28.3308H23.4144L25.6729 34.5412H32.4973L19.4984 0.468436ZM21.2288 22.3539H11.301L16.2487 8.84556L21.2288 22.3539Z" fill="white"/>
<path d="M58.3585 0.468436H36.2359V34.5332H42.9223V20.7671H58.3585V14.6131H42.9223V6.71906H58.3585V0.468436Z" fill="white"/>
<path d="M255.96 33.2742C255.889 33.4239 255.817 33.5738 255.706 33.7029C255.436 34.0602 255.063 34.3282 254.637 34.472C254.21 34.6157 253.751 34.6283 253.318 34.5084C252.845 34.3478 252.432 34.0527 252.129 33.6602C251.825 33.2676 251.645 32.7948 251.611 32.3013V20.259C251.611 19.9824 251.567 19.9855 251.362 20.0002C251.304 20.0043 251.234 20.0094 251.149 20.0094H232.99C232.567 20.0094 232.511 20.1383 232.511 20.5087V32.0919C232.516 32.4379 232.446 32.7809 232.305 33.0976C232.166 33.4146 231.959 33.6978 231.698 33.9285C231.421 34.2414 231.051 34.4599 230.642 34.5524C230.232 34.6449 229.803 34.607 229.416 34.4439C228.987 34.2818 228.613 34.0031 228.336 33.6398C228.061 33.2764 227.894 32.8432 227.855 32.39V2.77954C227.827 2.28222 227.957 1.78854 228.222 1.36613C228.489 0.943555 228.879 0.613 229.343 0.419485C229.695 0.286932 230.075 0.241754 230.449 0.288098C230.824 0.334276 231.181 0.470483 231.491 0.684927C231.799 0.899372 232.051 1.18541 232.224 1.51812C232.395 1.85083 232.483 2.22026 232.478 2.59433V15.0313C232.478 15.3052 232.478 15.4421 232.852 15.4421H251.205C251.57 15.4421 251.57 15.0635 251.57 14.7977V2.71526C251.56 2.31544 251.65 1.91927 251.83 1.5623C252.013 1.20517 252.28 0.898378 252.61 0.669149C252.89 0.467495 253.212 0.332943 253.552 0.276135C253.894 0.219326 254.242 0.241917 254.572 0.341914C254.902 0.441911 255.205 0.616656 255.456 0.852363C255.705 1.08807 255.897 1.37842 256.015 1.70017C256.037 1.74658 256.044 1.79759 256.051 1.84852C256.065 1.94797 256.078 2.04721 256.202 2.11113L256.234 32.8249C256.113 32.9574 256.037 33.1157 255.96 33.2742Z" fill="white"/>
<path d="M166.613 2.86823V17.6089C166.613 22.5387 166.613 27.2347 166.597 32.1885C166.589 32.5073 166.643 32.8245 166.759 33.122C166.874 33.4195 167.048 33.6914 167.27 33.922C167.492 34.1526 167.758 34.3374 168.053 34.4657C168.346 34.5939 168.663 34.6632 168.985 34.6695H187.404C187.938 34.6567 188.454 34.47 188.87 34.1381C189.288 33.8062 189.583 33.3476 189.711 32.833C189.809 32.3661 189.756 31.8802 189.557 31.4458C189.358 31.0113 189.024 30.6509 188.606 30.4165C188.195 30.1632 187.716 30.0369 187.233 30.054H171.667C171.317 30.054 171.219 29.9896 171.219 29.619V20.2994C171.219 19.9964 171.269 20 171.486 20.0158C171.546 20.0202 171.619 20.0255 171.707 20.0255H187.331C187.872 20.0286 188.399 19.853 188.829 19.5263C189.258 19.1996 189.565 18.7405 189.703 18.2212C189.799 17.7498 189.739 17.2603 189.534 16.8251C189.326 16.3899 188.985 16.0321 188.557 15.8047C188.157 15.5688 187.698 15.4515 187.233 15.4663H171.707C171.294 15.4663 171.219 15.1361 171.219 14.7575V5.30087C171.219 4.89009 171.333 4.8175 171.723 4.8175H187.338C187.855 4.81385 188.356 4.65139 188.776 4.35273C189.195 4.05407 189.51 3.63399 189.678 3.15012C189.809 2.70628 189.794 2.23271 189.635 1.79817C189.475 1.36363 189.18 0.990715 188.792 0.733581C188.343 0.394722 187.789 0.220975 187.225 0.242236H169.245C168.89 0.212669 168.534 0.260346 168.201 0.381937C167.866 0.503694 167.562 0.696538 167.312 0.946696C167.061 1.19702 166.869 1.49884 166.748 1.83073C166.627 2.16261 166.582 2.51675 166.613 2.86823Z" fill="white"/>
<path d="M199.047 18.1407V27.4283C199.015 27.7796 199.062 28.1337 199.183 28.4658C199.302 28.7977 199.495 29.0995 199.747 29.3496C199.997 29.6 200.301 29.7926 200.634 29.9144C200.969 30.0362 201.326 30.0838 201.681 30.0541H215.491C215.821 30.0793 216.152 30.0378 216.466 29.9317C216.779 29.8257 217.068 29.6574 217.313 29.4373C217.559 29.2172 217.756 28.95 217.894 28.6517C218.033 28.3533 218.108 28.0302 218.116 27.702C218.174 27.1377 218.425 26.61 218.828 26.206C219.229 25.8019 219.756 25.5454 220.325 25.4788C220.866 25.4851 221.39 25.6699 221.814 26.0037C222.237 26.3378 222.538 26.802 222.665 27.3235C222.708 27.6394 222.688 27.9608 222.606 28.2689C222.523 28.5771 222.38 28.8661 222.184 29.1191C221.989 29.3722 221.745 29.5843 221.466 29.7435C221.188 29.9026 220.879 30.0054 220.561 30.0461C219.919 30.0584 219.305 30.317 218.851 30.7675C218.396 31.2182 218.136 31.8256 218.124 32.4627C218.05 33.0435 217.769 33.5794 217.333 33.9737C216.897 34.3679 216.333 34.5948 215.743 34.6132H201.437C200.836 34.5996 200.263 34.3669 199.825 33.9596C199.387 33.5523 199.117 32.9992 199.064 32.4062C199.052 31.7692 198.79 31.1617 198.335 30.7112C197.881 30.2607 197.269 30.0021 196.627 29.9896C196.019 29.9353 195.455 29.6568 195.043 29.2094C194.632 28.7619 194.407 28.1781 194.408 27.5733V7.23427C194.407 6.62033 194.642 6.02883 195.065 5.58C195.486 5.13118 196.065 4.8586 196.684 4.81774C197.301 4.79564 197.886 4.54217 198.322 4.10863C198.758 3.67492 199.01 3.09354 199.032 2.48177C199.075 1.86219 199.357 1.28313 199.821 0.864544C200.284 0.446119 200.891 0.220382 201.518 0.234335H215.63C216.254 0.222541 216.861 0.449111 217.322 0.86737C217.783 1.28563 218.063 1.86352 218.108 2.48177C218.139 3.09122 218.396 3.66744 218.833 4.09899C219.267 4.53053 219.849 4.78667 220.463 4.81774C221.032 4.87405 221.564 5.11839 221.975 5.5114C222.387 5.90457 222.652 6.4235 222.73 6.98461C222.723 7.52811 222.534 8.05384 222.193 8.47941C221.851 8.90514 221.378 9.20646 220.846 9.33652C220.529 9.3817 220.207 9.36376 219.899 9.28353C219.59 9.2033 219.3 9.06261 219.048 8.86959C218.794 8.67658 218.584 8.43522 218.426 8.15998C218.269 7.88458 218.169 7.58077 218.131 7.26649C218.126 6.92132 218.048 6.58113 217.902 6.26786C217.755 5.95474 217.544 5.67535 217.282 5.44762C217.021 5.22005 216.715 5.04929 216.381 4.9463C216.05 4.84332 215.7 4.81059 215.353 4.84996H201.647C201.301 4.82853 200.954 4.88053 200.629 5.00278C200.306 5.12487 200.011 5.3144 199.767 5.55841C199.521 5.80242 199.332 6.09543 199.211 6.41768C199.09 6.7401 199.04 7.08427 199.064 7.42762C199.047 10.7704 199.047 14.7818 199.047 18.1407Z" fill="white"/>
<path d="M145.669 4.81788C146.084 4.81788 146.157 4.93067 146.157 5.31737C146.149 7.3448 146.142 12.8614 146.135 18.3792C146.126 25.0282 146.117 31.679 146.108 32.2293C146.117 32.5746 146.203 32.9138 146.359 33.2227C146.515 33.5315 146.738 33.8026 147.012 34.0164C147.286 34.2302 147.604 34.3815 147.943 34.4596C148.282 34.5378 148.635 34.5408 148.976 34.4685C149.493 34.3094 149.945 33.9875 150.261 33.5515C150.578 33.1154 150.743 32.589 150.731 32.052V5.25291C150.731 4.88233 150.82 4.78566 151.202 4.78566H159.692C160.187 4.76888 160.666 4.60692 161.068 4.32006C161.47 4.03335 161.777 3.6347 161.95 3.17458C162.095 2.73872 162.094 2.2683 161.948 1.8331C161.801 1.3979 161.517 1.02083 161.138 0.758218C160.68 0.389127 160.103 0.197437 159.513 0.218533H135.587C135.12 0.241455 134.669 0.397097 134.289 0.667188C133.909 0.937112 133.615 1.30986 133.442 1.74091C133.269 2.12179 133.224 2.54719 133.311 2.95565C133.399 3.36411 133.615 3.7342 133.93 4.01243C134.156 4.27338 134.439 4.48102 134.756 4.62038C135.074 4.75958 135.419 4.82718 135.766 4.81788H145.669Z" fill="white"/>
<path d="M262.872 0.387569V1.0319H261.913V3.72234H261.19V1.0319H260.232V0.387569H262.872Z" fill="white"/>
<path d="M267 0.387822H266.366L265.197 1.8376L264.051 0.379679H263.401V3.71445H264.124V1.49941L265.204 2.86066L266.285 1.49941V3.72259H267V0.387822Z" fill="white"/>
</svg>
